<?xml version="1.0" encoding="utf-8"?>
<!-- Generator: Adobe Illustrator 23.0.3 via Limmidy, SVG Export Plug-In . SVG Version: 6.00 Build 0)  -->
<svg version="1.1" id="Layer_2" xmlns="http://www.w3.org/2000/svg" xmlns:xlink="http://www.w3.org/1999/xlink" x="0px" y="0px"
	 viewBox="0 0 744.2 225" style="enable-background:new 0 0 744.2 225;" xml:space="preserve">
<style type="text/css">
	.st0{fill:#F9D047;}
</style>
<g>
	<polygon class="st0" points="125.8,55.6 79.4,55.6 66,112.8 52.7,55.6 6.3,55.6 0,164.9 35.9,164.9 37,106.5 50.3,164.9 
		81.7,164.9 95,106.5 96.2,164.9 132.1,164.9 	"/>
	<path class="st0" d="M338.6,123.4c5.2-3.1,17.9-11.2,17.9-32.8c0-11.2-4.9-21.1-13.6-27.1c-7.7-5.4-17.8-7.9-31.7-7.9h-47.6v109.3
		h36.5v-36.1h3.7l17.3,36.1h42L338.6,123.4z M319.7,92.2c0,4.4-2,5.8-3.7,7.1c-1,0.8-3.2,1.8-7.5,1.8H300V83.3h8.4
		c3.5,0,5.9,0.6,7.5,1.9l0.1,0.1C317.6,86.4,319.7,87.8,319.7,92.2z"/>
	<path class="st0" d="M431.6,55.6v41.3c0,5.7,0.4,13.4,0.6,17.3l-30.3-58.3l-0.1-0.3h-39.2v109.3H398v-41.3c0-5.7-0.4-13.6-0.6-17.4
		l31.9,58.4l0.1,0.3h37.7V55.6H431.6z"/>
	<rect x="477.9" y="55.6" class="st0" width="36.5" height="109.3"/>
	<path class="st0" d="M594.1,55.6v41.3c0,5.7,0.4,13.4,0.6,17.3l-30.3-58.3l-0.1-0.3h-39.2v109.3h35.5v-41.3
		c0-5.7-0.4-13.6-0.6-17.4l31.9,58.4l0.1,0.3h37.7V55.6H594.1z"/>
	<path class="st0" d="M691.4,98.4v27.2h16.5v7.2c-0.5,0.6-3.5,3.6-14.4,3.6c-13.3,0-21.9-10.3-21.9-26.2s8.6-26.2,21.9-26.2
		c12.3,0,19.3,7,21.6,9.3l0.3,0.3l24.3-20.3l-0.4-0.4c-0.2-0.2-0.5-0.5-0.8-0.8c-4.2-4.5-17.1-18.1-45.1-18.1
		c-15.8,0-30.2,4.8-40.5,13.6c-11.8,10-18,24.7-18,42.7c0,38.9,29,56.4,57.8,56.4c28.7,0,41.6-11.7,50.1-19.5l0.6-0.6V98.4H691.4z"
		/>
	<g>
		<circle class="st0" cx="197.9" cy="111.6" r="59.8"/>
		<path class="st0" d="M197.9,171.9c-33.2,0-60.3-27-60.3-60.3s27-60.3,60.3-60.3c33.2,0,60.3,27,60.3,60.3S231.2,171.9,197.9,171.9
			z M197.9,52.4c-32.7,0-59.3,26.6-59.3,59.3c0,32.7,26.6,59.3,59.3,59.3c32.7,0,59.3-26.6,59.3-59.3
			C257.2,79,230.6,52.4,197.9,52.4z"/>
	</g>
	<polygon class="st0" points="4.3,12.2 14.6,12.2 14.6,44.8 30,44.8 30,12.2 40.3,12.2 40.3,0 4.3,0 	"/>
	<polygon class="st0" points="68.8,15.9 57.8,15.9 57.8,0 42.5,0 42.5,44.8 57.8,44.8 57.8,28.6 68.8,28.6 68.8,44.8 84.1,44.8 
		84.1,0 68.8,0 	"/>
	<polygon class="st0" points="104.1,32.4 104.1,28.3 120,28.3 120,16.1 104.1,16.1 104.1,12.3 121,12.3 121,0 88.9,0 88.9,44.8 
		121.6,44.8 121.6,32.4 	"/>
	<path class="st0" d="M561,196.2c-1.8-1.5-4.7-3-8.4-4.3c-1.1-0.4-2.8-0.9-4.2-1.3c-0.7-0.2-1.3-0.4-1.7-0.5l-0.4-0.1
		c-1-0.3-2.7-0.8-2.7-1.7c0-0.7,0.4-1.5,3.5-1.5c2.6,0,7.8,1.4,11.4,4.6l0.5,0.4l6.7-12.4l-0.3-0.3c-4.5-3.7-11.4-6.1-18-6.1
		c-6.2,0-11.5,1.6-14.9,4.4c-1.8,1.5-5.9,5.6-5.9,12.4c0,6.2,2.7,9.2,4.7,10.9c2.3,1.9,4.8,2.9,6.4,3.5l0.6,0.2
		c1.4,0.5,5.4,1.8,7.2,2.3c1.7,0.5,3.2,1,3.2,2.1c0,1.4-2.2,1.6-3.2,1.6c-2.2,0-8.5-1.6-12.9-5.3l-0.5-0.4l-7.7,13.1l0.4,0.3
		c6,4.4,12.5,6.7,19.4,6.7c6.2,0,11.1-1.4,14.9-4.3l0,0c4.2-3.3,6.6-8.1,6.6-13.3C565.8,202.7,564.2,199,561,196.2z"/>
	<polygon class="st0" points="598.1,191.6 585.6,191.6 585.6,173.7 568.4,173.7 568.4,224.2 585.6,224.2 585.6,205.9 598.1,205.9 
		598.1,224.2 615.3,224.2 615.3,173.7 598.1,173.7 	"/>
	<path class="st0" d="M644.9,172.9c-16.4,0-27.4,10.5-27.4,26.1c0,15.6,11,26,27.4,26s27.4-10.5,27.4-26
		C672.3,183.4,661.3,172.9,644.9,172.9z M644.9,209.7c-6,0-10.1-4.4-10.1-11c0-6.6,4.1-11,10.1-11c6.1,0,10,4.3,10,11
		C655,205.3,651,209.7,644.9,209.7z"/>
	<polygon class="st0" points="726.3,173.7 720.6,199.5 714.9,173.7 697.9,173.7 692.3,199.5 686.6,173.7 668.6,173.7 682.8,223.8 
		682.9,224.2 700.2,224.2 706.4,197.9 712.6,224.2 729.9,224.2 744.2,173.7 	"/>
</g>
</svg>
